<?xml version="1.0" encoding="UTF-8" standalone="no"?>
<!-- Created with Inkscape (http://www.inkscape.org/) -->

<svg
   xmlns:dc="http://purl.org/dc/elements/1.1/"
   xmlns:cc="http://creativecommons.org/ns#"
   xmlns:rdf="http://www.w3.org/1999/02/22-rdf-syntax-ns#"
   xmlns:svg="http://www.w3.org/2000/svg"
   xmlns="http://www.w3.org/2000/svg"
   xmlns:sodipodi="http://sodipodi.sourceforge.net/DTD/sodipodi-0.dtd"
   xmlns:inkscape="http://www.inkscape.org/namespaces/inkscape"
   width="4096"
   height="4096"
   viewBox="0 0 4096 4096.0001"
   id="svg2"
   version="1.1"
   inkscape:version="0.91 r13725"
   sodipodi:docname="cookie-storage.svg"
   inkscape:export-filename="/Users/bouzuya/Dropbox/logo/cookie-storage/cookie-storage-100x100.png"
   inkscape:export-xdpi="2.2"
   inkscape:export-ydpi="2.2">
  <defs
     id="defs4" />
  <sodipodi:namedview
     id="base"
     pagecolor="#ffffff"
     bordercolor="#666666"
     borderopacity="1.0"
     inkscape:pageopacity="0.0"
     inkscape:pageshadow="2"
     inkscape:zoom="0.14111328"
     inkscape:cx="2048"
     inkscape:cy="1062.9758"
     inkscape:document-units="px"
     inkscape:current-layer="layer3"
     showgrid="true"
     units="px"
     inkscape:window-width="1362"
     inkscape:window-height="723"
     inkscape:window-x="4"
     inkscape:window-y="23"
     inkscape:window-maximized="1">
    <inkscape:grid
       type="xygrid"
       id="grid4136"
       empspacing="512"
       dotted="false" />
    <inkscape:grid
       type="xygrid"
       id="grid4138"
       empspacing="128" />
    <inkscape:grid
       type="xygrid"
       id="grid4140"
       empspacing="16"
       dotted="true" />
  </sodipodi:namedview>
  <metadata
     id="metadata7">
    <rdf:RDF>
      <cc:Work
         rdf:about="">
        <dc:format>image/svg+xml</dc:format>
        <dc:type
           rdf:resource="http://purl.org/dc/dcmitype/StillImage" />
        <dc:title />
      </cc:Work>
    </rdf:RDF>
  </metadata>
  <g
     inkscape:groupmode="layer"
     id="layer3"
     inkscape:label="Layer 3"
     style="display:inline">
    <path
       style="opacity:1;fill:#4e6a41;fill-opacity:1;fill-rule:nonzero;stroke:#000000;stroke-width:0;stroke-miterlimit:4;stroke-dasharray:none;stroke-opacity:1"
       d="M 3583.3359 507.31445 A 1536 384 0 0 1 2304 882.5 L 2304 890.20312 A 1536 384 0 0 0 3584 512 A 1536 384 0 0 0 3583.3359 507.31445 z M 512.66406 508.68555 A 1536 384 0 0 0 512 512 A 1536 384 0 0 0 1792 890.56641 L 1792 882.17969 A 1536 384 0 0 1 512.66406 508.68555 z "
       id="ellipse4301" />
    <path
       style="opacity:1;fill:#4e6a41;fill-opacity:1;fill-rule:nonzero;stroke:#000000;stroke-width:0;stroke-miterlimit:4;stroke-dasharray:none;stroke-opacity:1"
       d="M 2048 128 A 1536 384 0 0 0 512 512 A 1536 384 0 0 0 512.66406 516.68555 A 1536 384 0 0 1 2048 136 A 1536 384 0 0 1 3583.3359 515.31445 A 1536 384 0 0 0 3584 512 A 1536 384 0 0 0 2048 128 z "
       id="path4281" />
    <path
       style="display:inline;opacity:1;fill:#4e6a41;fill-opacity:1;fill-rule:nonzero;stroke:#000000;stroke-width:0;stroke-miterlimit:4;stroke-dasharray:none;stroke-opacity:1"
       d="M 512 2112 L 512 3456 L 512 3584 A 1536 384 0 0 0 1792 3962.3203 L 1792 2490.1035 A 1536 384 0 0 1 512 2112 z M 3584 2112 A 1536 384 0 0 1 2304 2490.3691 L 2304 3962.1543 A 1536 384 0 0 0 3584 3584 L 3584 3456 L 3584 2112 z "
       id="ellipse4997" />
    <path
       style="opacity:1;fill:#4e6a41;fill-opacity:1;fill-rule:nonzero;stroke:#000000;stroke-width:0;stroke-miterlimit:4;stroke-dasharray:none;stroke-opacity:1"
       d="M 512 640 L 512 1984 A 1536 384 0 0 0 1792 2362.3691 L 1792 1000.9141 A 1536 366.54544 0 0 1 512 640 z M 3583.498 640 A 1536 366.48801 0 0 1 3584 643.38086 L 3584 640 L 3583.498 640 z M 3584 643.38086 A 1536 366.48801 0 0 1 2304 1004.4941 L 2304 2362.1035 A 1536 384 0 0 0 3584 1984 L 3584 643.38086 z "
       id="rect4232" />
    <path
       id="path4311"
       d="m 2048,1723.3144 a 1536,384 0 0 0 -1536,384 A 1536,384 0 0 0 512.66406,2112 1536,384 0 0 1 2048,1731.3144 a 1536,384 0 0 1 1535.3359,379.3145 1536,384 0 0 0 0.6641,-3.3145 1536,384 0 0 0 -1536,-384 z"
       style="opacity:1;fill:#4e6a41;fill-opacity:1;fill-rule:nonzero;stroke:#000000;stroke-width:0;stroke-miterlimit:4;stroke-dasharray:none;stroke-opacity:1"
       inkscape:connector-curvature="0" />
    <path
       inkscape:connector-curvature="0"
       style="opacity:1;fill:#4e6a41;fill-opacity:1;fill-rule:nonzero;stroke:#000000;stroke-width:0;stroke-miterlimit:4;stroke-dasharray:none;stroke-opacity:1"
       d="m 2048,3195.3144 a 1536,384 0 0 0 -1536,384 A 1536,384 0 0 0 512.66406,3584 1536,384 0 0 1 2048,3203.3144 a 1536,384 0 0 1 1535.3359,379.3145 1536,384 0 0 0 0.6641,-3.3145 1536,384 0 0 0 -1536,-384 z"
       id="path4313" />
  </g>
</svg>
